<svg width="33" height="33" viewBox="0 0 33 33" fill="none" xmlns="http://www.w3.org/2000/svg">
<path d="M32.5533 16.4773C32.5533 25.4058 25.317 32.6421 16.3884 32.6421C7.45991 32.6421 0.223633 25.4058 0.223633 16.4773C0.223633 7.54878 7.45991 0.3125 16.3884 0.3125C25.317 0.3125 32.5533 7.54878 32.5533 16.4773ZM21.6862 23.8841C20.6696 22.7538 18.8953 21.5288 16.3884 21.5288C13.8816 21.5288 12.1073 22.7538 11.0907 23.8841C10.7181 24.3008 10.7497 24.8818 11.1665 25.3111C11.5832 25.6837 12.1641 25.6521 12.5935 25.2354C13.3323 24.4145 14.5888 23.5494 16.3316 23.5494C18.188 23.5494 19.4446 24.4145 20.1834 25.2354C20.5559 25.6521 21.1937 25.6837 21.6104 25.3111C22.0272 24.8818 22.0588 24.3008 21.6862 23.8841ZM11.3622 17.4876C12.4735 17.4876 13.3828 16.5847 13.3828 15.467C13.3828 15.3723 13.3765 15.2776 13.3639 15.1892L14.0458 15.4165C14.5762 15.5365 15.1508 15.3028 15.3276 14.7787C15.4476 14.2483 15.214 13.6737 14.6899 13.4969L8.62807 11.4763C8.09766 11.2995 7.52306 11.59 7.34625 12.1141C7.16945 12.6445 7.45991 13.2191 7.98401 13.3959L9.92883 14.04C9.5626 14.4062 9.3416 14.9113 9.3416 15.467C9.3416 16.5847 10.2446 17.4876 11.3622 17.4876ZM22.8859 14.0273L24.7929 13.3959C25.317 13.2191 25.5506 12.6445 25.4306 12.1141C25.2538 11.59 24.6792 11.2995 24.1488 11.4763L18.087 13.4969C17.5629 13.6737 17.2725 14.2483 17.4493 14.7787C17.6261 15.3028 18.2007 15.5365 18.7311 15.4165L19.4635 15.1702C19.4509 15.265 19.4446 15.366 19.4446 15.467C19.4446 16.5847 20.3476 17.4876 21.4652 17.4876C22.5765 17.4876 23.4858 16.5847 23.4858 15.467C23.4858 14.905 23.2522 14.3936 22.8859 14.0273Z" fill="white"/>
</svg>
