<svg width="34" height="34" viewBox="0 0 34 34" fill="none" xmlns="http://www.w3.org/2000/svg">
<path d="M33.9503 16.337C33.9312 16.1647 33.912 15.9828 33.8833 15.8105C33.8354 15.4276 33.7971 15.0351 33.7397 14.6426C33.3472 11.8665 32.3229 9.3202 30.7147 7.08976C29.3362 5.16564 27.5844 3.6053 25.5263 2.45657C23.6596 1.41315 21.6015 0.762196 19.3998 0.513305C18.768 0.436724 18.117 0.398438 17.4852 0.398438C16.3652 0.398438 15.2548 0.513308 14.1443 0.743053V0.733483L13.9816 0.781346C13.7232 0.838782 13.4743 0.896209 13.2158 0.963218C12.8903 1.04937 12.5553 1.15468 12.2298 1.25998C11.9331 1.34614 11.6842 1.42272 11.4448 1.50887C8.85064 2.43742 6.59147 3.99778 4.72479 6.15164C2.85811 8.29593 1.59451 10.7753 0.953143 13.5035C0.503225 15.4276 0.388351 17.3517 0.598951 19.228C0.819124 21.1425 1.30733 22.9326 2.054 24.5408C2.86768 26.2831 3.97812 27.8338 5.34702 29.1453C6.87865 30.6099 8.67832 31.7491 10.8513 32.6298C11.799 33.0127 12.7276 33.1946 13.5891 33.3286C14.039 33.4243 14.5081 33.5009 14.9676 33.5583C15.1303 33.5775 15.2835 33.5966 15.4462 33.6158C15.944 33.7019 16.5758 33.7402 17.3321 33.7402C17.6384 33.7402 17.9351 33.7306 18.2128 33.7211L17.983 33.8168L18.9786 33.6828C19.3998 33.6541 19.7348 33.6062 19.9071 33.5775L19.955 33.5679C19.9837 33.5583 20.0029 33.5488 20.022 33.5392C21.2856 33.3573 22.5013 33.0605 23.6309 32.6393C25.1338 32.0746 26.5314 31.3183 27.7663 30.3706C29.2405 29.241 30.4945 27.8721 31.471 26.2831C32.4474 24.7131 33.1175 23.0475 33.4717 21.3148C33.5865 20.7405 33.6727 20.1565 33.7493 19.5822C33.7876 19.3141 33.8259 19.0557 33.8641 18.7876C33.8737 18.7398 33.8833 18.6823 33.8929 18.6345L33.912 18.5483L33.9216 16.3944L33.9503 16.337ZM20.8165 5.51026C22.061 5.51026 23.0948 6.55369 23.0853 7.779C23.0757 9.00431 22.0418 10.0477 20.8165 10.0477C19.5912 10.0477 18.5574 9.00431 18.5574 7.779C18.5669 6.55369 19.6008 5.51026 20.8165 5.51026ZM23.3342 30.16C22.4726 31.4715 21.3239 32.4287 19.9358 33.0127C19.6295 33.051 19.3136 33.0893 18.9977 33.118C17.8873 33.2137 16.7386 33.2041 15.5611 33.0797C15.1495 33.0031 14.7474 32.9457 14.3549 32.8882C14.1443 32.8595 13.9337 32.8308 13.7231 32.7925C12.517 32.5436 11.3491 32.1607 10.2483 31.6629C9.04209 31.1173 7.92208 30.428 6.91695 29.6239C5.99796 28.8868 5.17471 28.0636 4.46633 27.1638C3.61436 26.082 2.90598 24.895 2.3699 23.6218C1.87212 22.4253 1.53708 21.2861 1.34563 20.1182C1.27862 19.6779 1.22118 19.2184 1.16374 18.7685C1.13503 18.5674 1.11588 18.3664 1.08716 18.1654V16.27C1.08716 16.2604 1.08715 16.2604 1.09673 16.2509C1.1063 16.203 1.12545 16.1455 1.12545 16.0785C1.23075 14.7767 1.47964 13.5035 1.86255 12.3165C2.36033 10.7753 3.07828 9.3202 4.01641 7.9896C5.14599 6.38138 6.55319 4.98377 8.19012 3.84462C9.51116 2.92563 10.9279 2.21725 12.4117 1.71947C12.6606 1.64288 12.919 1.57588 13.1775 1.50887C13.302 1.47058 13.436 1.44186 13.5604 1.40357C13.5221 1.68118 13.4934 1.94922 13.4551 2.21725C13.3402 3.0788 13.2349 3.90205 13.1488 4.7253C12.986 6.15164 12.852 7.85558 13.0531 9.59782C13.2254 11.1103 13.637 12.3643 14.2975 13.446C14.9293 14.4799 15.7143 15.3606 16.6428 16.0498C17.5714 16.7486 18.5382 17.4283 19.5242 18.0505C19.8401 18.2515 20.1752 18.3951 20.5102 18.5387C20.74 18.6345 20.9601 18.7302 21.1707 18.8451C22.5492 19.5726 23.5448 20.4437 24.2148 21.5158C24.8179 22.4827 25.1051 23.5836 25.0668 24.7801C24.9807 26.733 24.4063 28.5326 23.3342 30.16Z" fill="white"/>
</svg>
