<svg width="17" height="16" viewBox="0 0 17 16" fill="none" xmlns="http://www.w3.org/2000/svg">
<path d="M10.258 13.18C13.0514 13.18 14.4484 13.18 15.3158 12.3118C16.184 11.4444 16.184 10.0474 16.184 7.25405C16.184 4.46072 16.184 3.06368 15.3158 2.19627C14.4484 1.32812 13.0514 1.32813 10.258 1.32813H7.29507C4.50173 1.32813 3.1047 1.32812 2.23729 2.19627C1.36914 3.06368 1.36914 4.46072 1.36914 7.25405C1.36914 10.0474 1.36914 11.4444 2.23729 12.3118C2.72099 12.7963 3.36914 13.0103 4.3321 13.1044" stroke="#D9D8D8" stroke-width="1.48148" stroke-linecap="round" stroke-linejoin="round"/>
<path d="M10.2588 13.1814C9.34323 13.1814 8.33434 13.5518 7.4136 14.0296C5.9336 14.7977 5.1936 15.1822 4.82916 14.937C4.46471 14.6925 4.5336 13.9333 4.67212 12.4155L4.70323 12.0703" stroke="#D9D8D8" stroke-width="1.48148" stroke-linecap="round"/>
</svg>
