<svg width="30" height="23" viewBox="0 0 30 23" fill="none" xmlns="http://www.w3.org/2000/svg">
<path d="M21.5394 2.15625C19.7614 2.15625 18.3086 3.60909 18.3086 5.38702C18.3086 7.16494 19.7614 8.61779 21.5394 8.61779C23.3173 8.61779 24.7701 7.16494 24.7701 5.38702C24.7701 3.60909 23.3173 2.15625 21.5394 2.15625Z" fill="#FE8235"/>
<path d="M10.7686 0C8.39637 0 6.46094 1.93542 6.46094 4.30769C6.46094 6.67996 8.39637 8.61539 10.7686 8.61539C13.1409 8.61539 15.0763 6.67996 15.0763 4.30769C15.0763 1.93542 13.1409 0 10.7686 0Z" fill="#FE8235"/>
<path d="M26.9829 12.5666C28.3395 13.521 29.0769 14.7577 29.0769 16.0133V20.6923H14V16.0133C14 14.7577 14.7374 13.521 16.094 12.5666C17.4506 11.6124 19.3842 11 21.5385 11C23.6927 11 25.6263 11.6124 26.9829 12.5666Z" fill="#FE8235"/>
<path d="M18.547 13.5845C20.485 14.6448 21.5385 16.019 21.5385 17.414V22.613H0V17.414C0 16.019 1.0535 14.6448 2.99145 13.5845C4.92941 12.5241 7.69169 11.8438 10.7692 11.8438C13.8468 11.8438 16.6091 12.5241 18.547 13.5845Z" fill="#FE8235"/>
</svg>
