<svg width="20" height="14" viewBox="0 0 20 14" fill="none" xmlns="http://www.w3.org/2000/svg">
<path d="M10.0153 0.484531C12.92 0.484531 15.8248 0.484531 18.7295 0.484531C19.6238 0.484531 20.0006 0.861996 20.0006 1.75504C20.0006 5.36782 20.0006 8.97999 20.0006 12.5928C20.0006 13.4433 19.6125 13.8333 18.762 13.8339C12.9213 13.8345 7.08059 13.8345 1.24051 13.8339C0.388089 13.8339 0 13.4446 0 12.5946C0 8.97124 0 5.34845 0 1.72566C0 0.87387 0.386839 0.485156 1.23863 0.485156C4.16398 0.483906 7.08996 0.484531 10.0153 0.484531ZM18.6408 13.0277C18.5726 12.9315 18.5295 12.8646 18.4801 12.8034C17.1378 11.1448 15.7954 9.48681 14.453 7.82822C14.3874 7.7476 14.2787 7.66323 14.2762 7.57887C14.2724 7.42826 14.2887 7.22202 14.3837 7.14016C14.4755 7.06142 14.6811 7.08829 14.8292 7.11391C14.903 7.12641 14.9636 7.23577 15.0223 7.30764C16.3522 8.94936 17.6821 10.5911 19.0088 12.2353C19.0632 12.3028 19.0932 12.3897 19.1345 12.4672C19.1595 12.4403 19.1851 12.414 19.2101 12.3872C19.2101 8.86437 19.2101 5.34158 19.2101 1.76816C19.057 1.88003 18.9413 1.96252 18.8276 2.04751C16.2885 3.95171 13.75 5.85715 11.2102 7.76072C10.4015 8.36692 9.6066 8.37004 8.8048 7.76947C6.23942 5.84715 3.67591 3.92358 1.11115 2.00064C1.01615 1.9294 0.918039 1.8619 0.79805 1.77629C0.79805 5.35033 0.79805 8.875 0.79805 12.4628C0.873668 12.3734 0.906165 12.3359 0.938037 12.2965C2.03168 10.9461 3.12471 9.59493 4.21835 8.2438C4.49958 7.89571 4.77643 7.54387 5.0639 7.2014C5.21514 7.02142 5.40824 6.9533 5.61197 7.11516C5.82383 7.28264 5.80821 7.48638 5.65947 7.69198C5.6351 7.72573 5.60697 7.75697 5.58073 7.78885C4.23148 9.45494 2.8816 11.121 1.53361 12.7878C1.47861 12.8559 1.43362 12.9315 1.368 13.0271C7.13746 13.0277 12.8669 13.0277 18.6408 13.0277ZM1.46799 1.29133C1.58798 1.38757 1.6436 1.43444 1.70172 1.47756C4.18961 3.34551 6.67812 5.21346 9.16602 7.08079C9.81533 7.56824 10.1872 7.56512 10.8477 7.07016C13.195 5.3097 15.5429 3.54924 17.8896 1.78816C18.0896 1.63817 18.2845 1.48194 18.5295 1.29133C12.8157 1.29133 7.1787 1.29133 1.46799 1.29133Z" fill="white"/>
</svg>
