<svg width="16" height="19" viewBox="0 0 16 19" fill="none" xmlns="http://www.w3.org/2000/svg">
<path d="M9.46094 18.6641H3.1875C2.4584 18.6633 1.75939 18.3821 1.24384 17.8822C0.728283 17.3822 0.438296 16.7044 0.4375 15.9974V2.66406C0.438296 1.95706 0.728283 1.27923 1.24384 0.779299C1.75939 0.279369 2.4584 -0.00183105 3.1875 -0.00260353H9.46094V18.6641ZM12.8125 18.6641H12.0391V-0.00260353H12.8125C13.5416 -0.00183105 14.2406 0.279369 14.7562 0.779299C15.2717 1.27923 15.5617 1.95706 15.5625 2.66406V15.9974C15.5617 16.7044 15.2717 17.3822 14.7562 17.8822C14.2406 18.3821 13.5416 18.6633 12.8125 18.6641Z" fill="#D6CCC6"/>
</svg>
