<svg width="25" height="25" viewBox="0 0 25 25" fill="none" xmlns="http://www.w3.org/2000/svg">
<path fill-rule="evenodd" clip-rule="evenodd" d="M17.605 1.6196C18.1522 1.07279 18.8942 0.765625 19.6677 0.765625C20.4413 0.765625 21.1832 1.07279 21.7304 1.6196L23.5413 3.4305C24.0881 3.9777 24.3953 4.71962 24.3953 5.4932C24.3953 6.26678 24.0881 7.0087 23.5413 7.5559L9.18416 21.9131C8.83399 22.2632 8.40044 22.52 7.92353 22.6551L2.50249 24.2059C2.28792 24.2672 2.06085 24.27 1.84484 24.214C1.62883 24.1579 1.43174 24.0451 1.27403 23.8873C1.11631 23.7294 1.00372 23.5322 0.947923 23.3161C0.892128 23.1 0.895165 22.8729 0.956719 22.6584L2.50583 17.2391C2.64161 16.7615 2.89702 16.3264 3.24786 15.9751L17.605 1.61793V1.6196ZM19.9629 3.38715C19.9242 3.34832 19.8782 3.31752 19.8275 3.29651C19.7769 3.27549 19.7226 3.26467 19.6677 3.26467C19.6129 3.26467 19.5586 3.27549 19.508 3.29651C19.4573 3.31752 19.4113 3.34832 19.3726 3.38715L17.2682 5.4932L19.6677 7.8944L21.7738 5.78835C21.8126 5.74962 21.8434 5.70362 21.8644 5.65297C21.8854 5.60233 21.8963 5.54803 21.8963 5.4932C21.8963 5.43836 21.8854 5.38407 21.8644 5.33342C21.8434 5.28278 21.8126 5.23678 21.7738 5.19805L19.9629 3.38715V3.38715ZM17.8985 9.66195L15.499 7.26075L5.01708 17.7443C4.96677 17.7943 4.93004 17.8563 4.91036 17.9244L3.9799 21.181L7.23652 20.2506C7.30468 20.231 7.36668 20.1942 7.41661 20.1439L17.8985 9.66195Z" fill="white"/>
</svg>
