<svg width="20" height="25" viewBox="0 0 20 25" fill="none" xmlns="http://www.w3.org/2000/svg">
<path d="M15.9988 9.04191C16.5183 9.04191 16.973 9.03658 17.4285 9.0428C18.971 9.065 19.9869 10.0649 19.9913 11.6083C20.0029 15.0867 20.0038 18.565 19.9905 22.0434C19.9842 23.5637 18.9692 24.5823 17.4516 24.5858C12.4787 24.5965 7.50488 24.5974 2.53197 24.5849C1.04276 24.5814 0.0170944 23.5557 0.0108783 22.0701C-0.00333008 18.5624 -0.0042181 15.0547 0.0117663 11.5461C0.0179824 10.0818 1.04009 9.07921 2.50266 9.04458C2.97509 9.03303 3.44752 9.0428 3.97411 9.0428C3.98477 8.85809 3.99987 8.70269 4.00164 8.54728C4.0123 7.58556 3.97855 6.62117 4.03628 5.6621C4.21388 2.71832 6.67725 0.339309 9.67698 0.17325C12.6545 0.00807768 15.3426 2.08782 15.8638 4.98188C15.9526 5.47296 15.981 5.97913 15.9935 6.47908C16.0139 7.30494 15.9988 8.13258 15.9988 9.04191ZM10.0464 10.3793C7.60434 10.3793 5.16317 10.3784 2.72112 10.3802C1.73275 10.381 1.34469 10.7638 1.3438 11.7415C1.34202 15.1302 1.34202 18.5189 1.3438 21.9076C1.34469 22.8595 1.73808 23.2511 2.69448 23.2511C7.56349 23.2529 12.4316 23.2529 17.3006 23.2511C18.2597 23.2511 18.6549 22.8604 18.6558 21.9111C18.6584 18.5224 18.6584 15.1337 18.6558 11.745C18.6549 10.7629 18.2695 10.381 17.282 10.3802C14.871 10.3775 12.4583 10.3793 10.0464 10.3793ZM14.649 9.01172C14.649 7.9532 14.6881 6.92132 14.641 5.89388C14.5424 3.73776 13.0595 2.07095 10.8545 1.57277C8.98966 1.15096 6.89037 2.15798 5.91089 3.92247C5.01043 5.54311 5.45711 7.29073 5.32835 9.01172C8.47194 9.01172 11.5383 9.01172 14.649 9.01172Z" fill="white"/>
<path d="M8.61328 15.0612C8.66923 14.4396 9.06084 13.9263 9.64516 13.7621C10.2091 13.6031 10.7951 13.8225 11.1166 14.3135C11.4443 14.8153 11.4292 15.4946 10.9896 15.9057C10.7001 16.1766 10.6504 16.4581 10.6664 16.808C10.6806 17.1179 10.6815 17.4305 10.6566 17.7386C10.6255 18.1302 10.3494 18.3798 9.98616 18.3602C9.60786 18.3398 9.38408 18.1276 9.3459 17.7519C9.32192 17.5175 9.32636 17.2786 9.33435 17.0424C9.35034 16.5833 9.35034 16.1597 8.94096 15.8081C8.75448 15.65 8.71807 15.3161 8.61328 15.0612Z" fill="white"/>
</svg>
