<svg width="16" height="16" viewBox="0 0 16 16" fill="none" xmlns="http://www.w3.org/2000/svg">
<path d="M9.66634 3.83594H14.6663M12.1663 1.33594V6.33594M2.16634 1.33594H5.49967C5.95991 1.33594 6.33301 1.70903 6.33301 2.16927V5.5026C6.33301 5.96284 5.95991 6.33594 5.49967 6.33594H2.16634C1.7061 6.33594 1.33301 5.96284 1.33301 5.5026V2.16927C1.33301 1.70903 1.7061 1.33594 2.16634 1.33594ZM2.16634 9.66927H5.49967C5.95991 9.66927 6.33301 10.0424 6.33301 10.5026V13.8359C6.33301 14.2962 5.95991 14.6693 5.49967 14.6693H2.16634C1.7061 14.6693 1.33301 14.2962 1.33301 13.8359V10.5026C1.33301 10.0424 1.7061 9.66927 2.16634 9.66927ZM10.4997 9.66927H13.833C14.2932 9.66927 14.6663 10.0424 14.6663 10.5026V13.8359C14.6663 14.2962 14.2932 14.6693 13.833 14.6693H10.4997C10.0394 14.6693 9.66634 14.2962 9.66634 13.8359V10.5026C9.66634 10.0424 10.0394 9.66927 10.4997 9.66927Z" stroke="#ECEFF2" stroke-width="1.5" stroke-linecap="round" stroke-linejoin="round"/>
</svg>
