<svg width="26" height="27" viewBox="0 0 26 27" fill="none" xmlns="http://www.w3.org/2000/svg">
<path d="M20.789 6.42067C24.4584 7.02227 25.9317 9.81476 25.9981 11.9691C26.0674 14.2246 24.544 17.2158 20.789 17.8277C20.789 17.9814 20.789 18.1463 20.789 18.3112C20.789 20.9032 20.79 23.4942 20.7881 26.0862C20.7881 26.8105 20.5946 26.9989 19.8546 26.9989C14.4358 26.9998 9.01599 27.0008 3.59716 26.9979C1.52335 26.997 0.00384929 25.5305 0.00288696 23.5223C-0.000962321 16.856 -0.000962321 10.1896 0.00288696 3.52323C0.00481161 1.46916 1.50122 0.00356807 3.59908 0.002631C9.03427 -0.00205439 14.4695 0.000756844 19.9047 0.00169392C20.5869 0.00169392 20.7871 0.19848 20.7881 0.864742C20.79 2.55054 20.789 4.23728 20.789 5.92308C20.789 6.09176 20.789 6.26043 20.789 6.42067ZM1.34725 20.9294C2.43371 20.0786 3.64142 20.2276 4.81834 20.2266C9.50196 20.2219 14.1846 20.2248 18.8682 20.2248C19.0559 20.2248 19.2445 20.2248 19.462 20.2248C19.462 19.3945 19.462 18.6214 19.462 17.809C17.9964 17.5878 16.7434 16.9862 15.7561 15.9067C14.7524 14.8094 14.2491 13.5068 14.2751 12.0553C14.3193 9.64422 15.8735 7.04945 19.4476 6.41036C19.4476 4.7077 19.4476 3.00315 19.4476 1.25738C19.2455 1.25738 19.0876 1.25738 18.9298 1.25738C13.8776 1.25738 8.82545 1.27518 3.77326 1.2452C2.42794 1.2377 1.31357 2.11574 1.32704 3.63006C1.37516 9.20566 1.34629 14.7813 1.34629 20.3569C1.34725 20.5087 1.34725 20.6605 1.34725 20.9294ZM19.4629 21.5357C19.2532 21.5357 19.0645 21.5357 18.8769 21.5357C16.0708 21.5357 13.2646 21.5357 10.4585 21.5357C8.11718 21.5357 5.77585 21.5282 3.43549 21.5395C2.27108 21.5451 1.37323 22.4306 1.35014 23.557C1.32608 24.7733 2.26049 25.6917 3.5731 25.6935C8.73595 25.701 13.8998 25.6973 19.0626 25.6963C19.1868 25.6963 19.3109 25.6785 19.4629 25.6673C19.4629 24.2945 19.4629 22.946 19.4629 21.5357ZM20.1799 16.5598C22.5029 16.6789 24.5459 14.725 24.6941 12.2437C24.8346 9.8991 22.8368 7.79724 20.2896 7.71852C17.699 7.63794 15.7484 9.58143 15.606 11.8745C15.452 14.3371 17.4353 16.5542 20.1799 16.5598Z" fill="#D9D8D8"/>
<path d="M18.8238 12.1079C18.8238 11.5935 18.8142 11.079 18.8267 10.5655C18.8392 10.0042 19.1568 9.82991 19.6322 10.1288C20.4511 10.6433 21.2653 11.1662 22.0726 11.6994C22.497 11.9796 22.4874 12.2523 22.064 12.5278C21.2662 13.0469 20.4685 13.5642 19.6649 14.0749C19.1568 14.3972 18.8392 14.236 18.8267 13.6513C18.8142 13.1359 18.8238 12.6215 18.8238 12.1079Z" fill="#D9D8D8"/>
</svg>