<svg width="26" height="27" viewBox="0 0 26 27" fill="none" xmlns="http://www.w3.org/2000/svg">
<g clip-path="url(#clip0_1472_3485)">
<g clip-path="url(#clip1_1472_3485)">
<path d="M20.788 6.42067C24.4574 7.02227 25.9307 9.81476 25.9971 11.9691C26.0664 14.2246 24.543 17.2158 20.788 17.8277C20.788 17.9814 20.788 18.1463 20.788 18.3112C20.788 20.9032 20.789 23.4942 20.7871 26.0862C20.7871 26.8105 20.5937 26.9989 19.8536 26.9989C14.4348 26.9998 9.01501 27.0008 3.59618 26.9979C1.52238 26.997 0.00287272 25.5305 0.0019104 23.5223C-0.00193888 16.856 -0.00193888 10.1896 0.0019104 3.52323C0.00383504 1.46916 1.50024 0.00356807 3.5981 0.002631C9.0333 -0.00205439 14.4685 0.000756844 19.9037 0.00169392C20.586 0.00169392 20.7861 0.19848 20.7871 0.864742C20.789 2.55054 20.788 4.23728 20.788 5.92308C20.788 6.09176 20.788 6.26043 20.788 6.42067ZM1.34627 20.9294C2.43273 20.0786 3.64045 20.2276 4.81737 20.2266C9.50098 20.2219 14.1836 20.2248 18.8673 20.2248C19.0549 20.2248 19.2435 20.2248 19.461 20.2248C19.461 19.3945 19.461 18.6214 19.461 17.809C17.9954 17.5878 16.7425 16.9862 15.7551 15.9067C14.7514 14.8094 14.2481 13.5068 14.2741 12.0553C14.3184 9.64422 15.8725 7.04945 19.4466 6.41036C19.4466 4.7077 19.4466 3.00315 19.4466 1.25738C19.2445 1.25738 19.0867 1.25738 18.9288 1.25738C13.8767 1.25738 8.82447 1.27518 3.77229 1.2452C2.42696 1.2377 1.31259 2.11574 1.32606 3.63006C1.37418 9.20566 1.34531 14.7813 1.34531 20.3569C1.34627 20.5087 1.34627 20.6605 1.34627 20.9294ZM19.462 21.5357C19.2522 21.5357 19.0636 21.5357 18.8759 21.5357C16.0698 21.5357 13.2637 21.5357 10.4575 21.5357C8.1162 21.5357 5.77488 21.5282 3.43451 21.5395C2.2701 21.5451 1.37226 22.4306 1.34916 23.557C1.3251 24.7733 2.25952 25.6917 3.57212 25.6935C8.73498 25.701 13.8988 25.6973 19.0616 25.6963C19.1858 25.6963 19.3099 25.6785 19.462 25.6673C19.462 24.2945 19.462 22.946 19.462 21.5357ZM20.1789 16.5598C22.5019 16.6789 24.545 14.725 24.6932 12.2437C24.8337 9.8991 22.8359 7.79724 20.2886 7.71852C17.698 7.63794 15.7474 9.58143 15.605 11.8745C15.451 14.3371 17.4344 16.5542 20.1789 16.5598Z" fill="white"/>
<path d="M1.34652 20.9265C1.34652 20.6575 1.34652 20.5057 1.34652 20.3539C1.34652 14.7783 1.37539 9.20272 1.32727 3.62711C1.3138 2.11279 2.42816 1.23381 3.77349 1.24225C8.82568 1.27223 13.8779 1.25443 18.9301 1.25443C19.0879 1.25443 19.2457 1.25443 19.4478 1.25443C19.4478 3.0002 19.4478 4.70475 19.4478 6.40742C15.8737 7.0465 14.3196 9.64221 14.2753 12.0524C14.2484 13.503 14.7526 14.8064 15.7563 15.9038C16.7437 16.9833 17.9966 17.5858 19.4622 17.806C19.4622 18.6185 19.4622 19.3906 19.4622 20.2218C19.2438 20.2218 19.0561 20.2218 18.8685 20.2218C14.1848 20.2218 9.50219 20.219 4.81857 20.2237C3.64069 20.2246 2.43298 20.0756 1.34652 20.9265Z" fill="#FE8235"/>
<path d="M19.4619 21.5337C19.4619 22.9431 19.4619 24.2925 19.4619 25.6653C19.3108 25.6765 19.1867 25.6943 19.0616 25.6943C13.8987 25.6953 8.7349 25.6999 3.57205 25.6915C2.25944 25.6896 1.32503 24.7713 1.34909 23.555C1.37218 22.4286 2.27003 21.5421 3.43444 21.5374C5.77577 21.5262 8.11709 21.5337 10.4575 21.5337C13.2636 21.5337 16.0697 21.5337 18.8758 21.5337C19.0645 21.5337 19.2521 21.5337 19.4619 21.5337Z" fill="#FE8235"/>
<path d="M20.1789 16.5625C17.4334 16.5569 15.451 14.3397 15.604 11.8771C15.7474 9.58408 17.698 7.64058 20.2876 7.72117C22.8358 7.79988 24.8327 9.90175 24.6922 12.2463C24.5449 14.7277 22.5019 16.6815 20.1789 16.5625ZM18.8239 12.1067C18.8239 12.6211 18.8153 13.1356 18.8258 13.6491C18.8384 14.2339 19.1559 14.395 19.664 14.0727C20.4676 13.5629 21.2663 13.0447 22.0631 12.5256C22.4865 12.2501 22.4961 11.9774 22.0718 11.6972C21.2653 11.164 20.4512 10.6411 19.6313 10.1266C19.1559 9.82772 18.8384 10.002 18.8258 10.5633C18.8143 11.0778 18.8239 11.5922 18.8239 12.1067Z" fill="#FE8235"/>
<path d="M18.8238 12.1079C18.8238 11.5935 18.8142 11.079 18.8267 10.5655C18.8392 10.0042 19.1568 9.82991 19.6322 10.1288C20.4511 10.6433 21.2653 11.1662 22.0726 11.6994C22.497 11.9796 22.4874 12.2523 22.064 12.5278C21.2662 13.0469 20.4685 13.5642 19.6649 14.0749C19.1568 14.3972 18.8392 14.236 18.8267 13.6513C18.8142 13.1359 18.8238 12.6215 18.8238 12.1079Z" fill="white"/>
</g>
</g>
<defs>
<clipPath id="clip0_1472_3485">
<rect width="26" height="27" fill="white"/>
</clipPath>
<clipPath id="clip1_1472_3485">
<rect width="26" height="27" fill="white"/>
</clipPath>
</defs>
</svg>
