<svg width="20" height="20" viewBox="0 0 20 20" fill="none" xmlns="http://www.w3.org/2000/svg">
<path d="M15.8378 2.50545C15.8378 3.97403 15.8378 5.39541 15.8378 6.8168C15.8378 6.9209 15.8496 7.02778 15.8308 7.12842C15.7878 7.36162 15.633 7.5379 15.4047 7.48307C15.252 7.44629 15.1174 7.26792 15.0126 7.12495C14.9626 7.05624 14.9987 6.92299 14.9987 6.81888C14.9987 5.07199 14.9987 3.32511 14.998 1.57822C14.998 1.03341 14.9473 0.955675 14.4074 0.888354C12.6077 0.662792 11.0656 1.27077 9.69694 2.39302C9.61435 2.46034 9.59284 2.63871 9.59284 2.76572C9.58659 4.95193 9.58867 7.13883 9.58798 9.32504C9.58798 9.44025 9.62546 9.59294 9.56785 9.66373C9.45542 9.79976 9.29093 9.96841 9.14102 9.97466C9.01818 9.98021 8.86202 9.78657 8.76833 9.64915C8.7135 9.56865 8.74959 9.42429 8.74959 9.30908C8.74889 7.13397 8.74612 4.95887 8.75375 2.78446C8.75445 2.55334 8.68504 2.40968 8.49973 2.26601C7.2588 1.30686 5.88184 0.766204 4.2925 0.847406C4.246 0.849488 4.1995 0.846712 4.15369 0.852264C3.45133 0.943877 3.32987 0.920973 3.33334 1.73022C3.34653 4.78466 3.3382 7.83842 3.33889 10.8929C3.33889 11.4412 3.48325 11.5543 4.03154 11.5008C5.23361 11.3835 6.37529 11.6174 7.46423 12.1276C7.71339 12.2442 7.86608 12.4267 7.73977 12.7078C7.61553 12.9833 7.37748 13.0118 7.12693 12.8924C6.46274 12.5759 5.76732 12.3774 5.03234 12.3378C4.7228 12.3212 4.40701 12.3094 4.10025 12.3469C3.13276 12.4649 2.5005 11.9318 2.4998 10.965C2.49842 8.28121 2.49911 5.59668 2.49911 2.91285C2.49911 2.78862 2.49911 2.66439 2.49911 2.51101C2.05285 2.51101 1.63851 2.49643 1.22625 2.51656C0.991667 2.52836 0.851472 2.68174 0.839673 2.92812C0.835509 3.00863 0.838285 3.08983 0.838285 3.17103C0.838285 6.34069 0.838285 9.51104 0.838285 12.6807C0.838285 13.2352 0.94239 13.3366 1.51011 13.3373C3.26879 13.3373 5.02817 13.3373 6.78686 13.3373C6.87916 13.3373 6.97216 13.3359 7.06447 13.3386C7.32612 13.3463 7.48575 13.4865 7.4913 13.7426C7.49685 13.998 7.34486 14.1458 7.08321 14.1638C7.0256 14.168 6.96731 14.1652 6.9097 14.1652C5.05802 14.1652 3.20633 14.1666 1.35534 14.1645C0.510007 14.1638 0.00127905 13.6544 0.000585016 12.8015C-0.00149709 9.5506 -0.00149709 6.29974 0.000585016 3.04888C0.00127905 2.19106 0.525969 1.66984 1.38102 1.66706C1.73845 1.66567 2.09518 1.66706 2.4769 1.66706C2.48592 1.54699 2.49633 1.44775 2.4998 1.3485C2.52479 0.637113 2.99326 0.154759 3.70395 0.0652285C5.63129 -0.177684 7.33931 0.358805 8.87035 1.5109C9.09938 1.68302 9.24374 1.67608 9.47069 1.50674C10.9622 0.393507 12.6161 -0.140206 14.5011 0.0457955C15.2714 0.121445 15.8981 0.662098 15.8398 1.49425C15.8371 1.53797 15.8503 1.58239 15.8614 1.66706C16.2445 1.66706 16.6227 1.66498 17.001 1.66775C17.7963 1.67261 18.3349 2.20008 18.3363 2.98711C18.3398 4.58339 18.3384 6.18037 18.337 7.77665C18.337 8.13269 18.1767 8.33882 17.9143 8.33812C17.6492 8.33743 17.5 8.13893 17.4993 7.7711C17.4979 6.22062 17.4993 4.67084 17.4979 3.12037C17.4972 2.62483 17.3806 2.50823 16.8871 2.50615C16.554 2.50476 16.2195 2.50545 15.8378 2.50545Z" fill="white"/>
<path d="M14.5558 19.998C11.5582 19.9869 9.15202 17.539 9.16312 14.5117C9.17423 11.5578 11.6492 9.15093 14.662 9.16412C17.5901 9.1773 20.0074 11.639 20.0005 14.6005C19.9928 17.5862 17.5485 20.0098 14.5558 19.998ZM19.1607 14.5852C19.1614 12.0527 17.1084 10.0004 14.5773 10.0025C12.0642 10.0053 10.0098 12.052 10.0015 14.5623C9.99319 17.0942 12.0434 19.1568 14.571 19.1596C17.1098 19.1617 19.16 17.1184 19.1607 14.5852Z" fill="white"/>
<path d="M15.0009 15.4132C15.0009 15.9323 15.0044 16.4508 14.9995 16.9699C14.9967 17.3114 14.8455 17.4939 14.5831 17.4939C14.3235 17.4939 14.1639 17.303 14.1632 16.9713C14.1604 15.9337 14.1604 14.8961 14.1632 13.8579C14.1639 13.5199 14.3173 13.3373 14.5817 13.3359C14.8489 13.3346 14.9967 13.5115 14.9995 13.8565C15.0044 14.3756 15.0009 14.8941 15.0009 15.4132Z" fill="white"/>
<path d="M15.0012 12.0877C14.9679 12.3431 14.8318 12.5013 14.575 12.4937C14.3224 12.486 14.1642 12.3292 14.1711 12.0759C14.1781 11.8267 14.3398 11.6685 14.591 11.6719C14.8457 11.6747 14.9748 11.8427 15.0012 12.0877Z" fill="white"/>
</svg>
