<svg width="13" height="15" viewBox="0 0 13 15" fill="none" xmlns="http://www.w3.org/2000/svg">
<path d="M2.95833 6.78906H4.375V8.20573H2.95833V6.78906ZM12.875 3.2474V13.1641C12.875 13.9432 12.2375 14.5807 11.4583 14.5807H1.54167C1.16594 14.5807 0.805609 14.4315 0.539932 14.1658C0.274255 13.9001 0.125 13.5398 0.125 13.1641L0.132083 3.2474C0.132083 2.46823 0.755417 1.83073 1.54167 1.83073H2.25V0.414062H3.66667V1.83073H9.33333V0.414062H10.75V1.83073H11.4583C12.2375 1.83073 12.875 2.46823 12.875 3.2474ZM1.54167 4.66406H11.4583V3.2474H1.54167V4.66406ZM11.4583 13.1641V6.08073H1.54167V13.1641H11.4583ZM8.625 8.20573H10.0417V6.78906H8.625V8.20573ZM5.79167 8.20573H7.20833V6.78906H5.79167V8.20573Z" fill="#FE8235"/>
</svg>
