<svg width="14" height="8" viewBox="0 0 14 8" fill="none" xmlns="http://www.w3.org/2000/svg">
<path d="M13.3525 7.3638C13.1649 7.55127 12.9106 7.65659 12.6455 7.65659C12.3803 7.65659 12.126 7.55127 11.9385 7.3638L6.98848 2.4138L2.03848 7.3638C1.84987 7.54596 1.59727 7.64675 1.33508 7.64447C1.07288 7.6422 0.822065 7.53703 0.636658 7.35162C0.45125 7.16621 0.346082 6.9154 0.343803 6.6532C0.341525 6.39101 0.442319 6.1384 0.624477 5.9498L6.28148 0.2928C6.469 0.105329 6.72331 1.34797e-05 6.98848 1.34566e-05C7.25364 1.34334e-05 7.50795 0.105329 7.69548 0.2928L13.3525 5.9498C13.5399 6.13733 13.6453 6.39164 13.6453 6.6568C13.6453 6.92196 13.5399 7.17627 13.3525 7.3638Z" fill="#707070"/>
</svg>
