<svg width="34" height="28" viewBox="0 0 34 28" fill="none" xmlns="http://www.w3.org/2000/svg">
<path d="M24.5394 3.97163C22.1072 3.97163 20.124 5.95485 20.124 8.38702C20.124 10.8192 22.1072 12.8024 24.5394 12.8024C26.9715 12.8024 28.9547 10.8192 28.9547 8.38702C28.9547 5.95485 26.9715 3.97163 24.5394 3.97163Z" stroke="#D9D8D8" stroke-width="2.36923"/>
<path d="M13.7686 1.81538C10.7421 1.81538 8.27632 4.28118 8.27632 7.30769C8.27632 10.3342 10.7421 12.8 13.7686 12.8C16.7951 12.8 19.2609 10.3342 19.2609 7.30769C19.2609 4.28118 16.7951 1.81538 13.7686 1.81538Z" stroke="#D9D8D8" stroke-width="2.36923"/>
<path d="M29.5883 14.3634L29.5883 14.3634C28.0068 13.2508 25.8275 12.581 23.4623 12.581C21.0971 12.581 18.9178 13.2508 17.3363 14.3634L17.3362 14.3634C15.7646 15.469 14.7392 17.0296 14.7392 18.7789V23.4579V24.6425H15.9238H29.9238C31.1728 24.6425 32.1854 23.63 32.1854 22.381V18.7789C32.1854 17.0296 31.1599 15.469 29.5883 14.3634Z" stroke="#D9D8D8" stroke-width="2.36923"/>
<path d="M22.1156 15.5452L22.1156 15.5452C19.9699 14.3712 17.0036 13.6591 13.7692 13.6591C10.5349 13.6591 7.56855 14.3712 5.42285 15.5452L5.42284 15.5452C3.32842 16.6912 1.81538 18.3803 1.81538 20.414V24.5361C1.81538 25.7851 2.82791 26.7976 4.07692 26.7976H23.4615C24.7105 26.7976 25.7231 25.7851 25.7231 24.5361V20.414C25.7231 18.3803 24.21 16.6912 22.1156 15.5452Z" stroke="#D9D8D8" stroke-width="2.36923"/>
</svg>
