<svg width="80" height="63" viewBox="0 0 80 63" fill="none" xmlns="http://www.w3.org/2000/svg">
<path d="M80.0004 52.2671C78.6923 54.3564 76.7854 55.7776 74.8451 57.1139C69.3818 60.8863 63.3711 62.5353 56.8131 62.0608C53.8999 61.8615 51.0361 61.1775 48.3301 60.0346C59.2499 59.558 68.3859 55.1443 75.7464 46.6172C77.282 47.9731 79.047 49.0243 80.0004 50.97V52.2671Z" fill="#964DCD"/>
<path d="M27.877 27.6861C28.0647 16.9195 31.4404 8.22485 38.1542 0.962237C39.3434 -0.324008 40.6995 -0.317479 41.8949 0.962237C47.3027 6.79278 50.6971 13.6898 51.7278 21.7402C53.2717 33.7604 49.9085 44.1723 41.9659 52.9953C40.7037 54.3969 39.3434 54.3686 38.0603 52.9823C32.916 47.4979 29.5312 40.4825 28.3735 32.9051C28.0543 30.9594 27.9917 28.9702 27.877 27.6861Z" fill="#964DCD"/>
<path d="M51.0078 48.968C51.9967 46.7742 53.0941 44.6 53.9746 42.33C56.2695 36.3471 57.104 30.1161 56.6263 23.6848C56.3382 19.7932 55.5227 15.9638 54.2041 12.311C53.9954 11.7539 54.0726 11.4688 54.5921 11.249C57.0185 10.2304 59.4157 9.1248 61.8713 8.20201C63.4444 7.60568 64.7421 8.41965 65.1134 10.1368C68.0941 23.8118 64.804 35.5824 55.243 45.4487C54.1164 46.6044 52.802 47.5577 51.5669 48.598C51.3875 48.7323 51.2008 48.8558 51.0078 48.968Z" fill="#964DCD"/>
<path d="M28.9557 49.146C27.2408 47.5899 25.4278 46.1339 23.8255 44.4581C18.4177 38.7995 15.2507 31.946 14.1429 24.0609C13.5115 19.4291 13.7711 14.7125 14.9065 10.1865C15.3237 8.43229 16.5755 7.59874 18.1924 8.20377C20.5792 9.09827 22.9033 10.1625 25.265 11.1397C25.9389 11.4161 26.0516 11.7774 25.7887 12.4891C23.7921 17.9083 23.0327 23.5451 23.331 29.3191C23.6507 35.9241 25.489 42.352 28.6908 48.06L29.1602 48.9023L28.9557 49.146Z" fill="#964DCD"/>
<path d="M9.69666 26.0156C12.0438 38.6387 18.4968 48.1974 29.0389 54.8854C28.6071 54.8332 28.1731 54.7853 27.7413 54.7244C27.3094 54.6635 26.865 54.6156 26.4331 54.522C15.2727 52.0931 7.32799 45.4689 2.59899 34.6494C1.9731 33.2042 1.55583 31.6547 1.10101 30.1312C1.00717 29.8401 0.96984 29.5324 0.991191 29.226C1.01254 28.9197 1.09215 28.6209 1.22537 28.347C1.35859 28.0731 1.54276 27.8296 1.76714 27.6307C1.99151 27.4319 2.2516 27.2816 2.53223 27.1887C4.85564 26.4483 7.26753 26.0534 9.69666 26.0156Z" fill="#964DCD"/>
<path d="M51.0068 54.9197C61.5177 48.236 67.977 38.673 70.3658 25.9062C72.0015 26.1239 73.6372 26.3415 75.2687 26.6027C75.9337 26.7169 76.5909 26.8761 77.2361 27.0793C78.6402 27.5146 79.3433 28.7813 78.9198 30.2329C75.0621 43.4371 66.623 51.4854 53.7441 54.5062C52.847 54.7173 51.9206 54.7869 51.0068 54.9197Z" fill="#964DCD"/>
<path d="M4.26211 46.5781C11.6539 55.1422 20.7858 59.5494 31.7473 60.1566C30.4538 60.5592 29.179 61.062 27.8626 61.3493C17.6813 63.5735 8.72893 61.0707 1.08256 53.6601C-0.352832 52.2694 -0.36535 50.8917 1.07213 49.4858C2.08608 48.4846 3.17722 47.5597 4.26211 46.5781Z" fill="#964DCD"/>
</svg>
