<svg width="20" height="17" viewBox="0 0 20 17" fill="none" xmlns="http://www.w3.org/2000/svg">
<path d="M17.5241 5.89004C17.789 5.90537 18.0088 5.90099 18.2234 5.93384C19.5417 6.13459 20.2863 7.27847 19.8972 8.55082C19.2381 10.7086 18.5584 12.8599 17.8745 15.0097C17.5971 15.8813 16.8664 16.4112 15.9539 16.412C11.3076 16.4164 6.66123 16.4178 2.01563 16.4105C0.906063 16.4091 0.0125671 15.5316 0.00964715 14.4191C-0.00203253 10.5393 -0.00203253 6.65944 0.0103771 2.7796C0.0125671 1.63645 0.892193 0.784562 2.03607 0.777993C3.52012 0.769233 5.00344 0.775803 6.48749 0.775803C7.04812 0.775803 7.53209 0.965598 7.93431 1.35906C7.96059 1.38461 7.98687 1.40943 8.01315 1.43497C9.39646 2.79712 8.9614 2.6117 10.9331 2.62119C12.3923 2.62849 13.8523 2.62119 15.3115 2.62265C16.7262 2.62411 17.5219 3.42271 17.5233 4.8396C17.5241 5.17904 17.5241 5.51775 17.5241 5.89004ZM8.98037 15.6813C11.2674 15.6813 13.5537 15.682 15.8407 15.6805C16.5473 15.6798 16.9795 15.3937 17.1883 14.7381C17.8635 12.611 18.5344 10.4824 19.1862 8.34789C19.4709 7.41497 18.9008 6.64703 17.9241 6.64484C13.3143 6.63608 8.70371 6.63827 4.09389 6.64338C3.42741 6.64411 2.99454 6.97625 2.79452 7.61134C2.14046 9.69397 1.48713 11.7773 0.848394 13.8651C0.772476 14.1118 0.726488 14.3987 0.773206 14.6462C0.897303 15.3061 1.40902 15.6783 2.12002 15.6791C4.40632 15.6835 6.69335 15.6813 8.98037 15.6813ZM16.7934 5.90829C16.7934 5.52359 16.7934 5.17466 16.7934 4.825C16.7919 3.82712 16.3211 3.35774 15.3144 3.35701C13.8435 3.35555 12.3719 3.35555 10.901 3.35701C8.84241 3.3592 8.99132 3.46067 7.5226 1.97516C7.20433 1.65324 6.83788 1.5014 6.3831 1.50505C4.99687 1.51527 3.61064 1.50797 2.22514 1.5087C1.21849 1.50943 0.733058 1.99633 0.732328 3.00881C0.731598 5.74478 0.731598 8.48001 0.732328 11.216C0.732328 11.3284 0.741817 11.4401 0.746197 11.5525C1.20827 10.2415 1.62728 8.92749 2.03461 7.61061C2.41201 6.38789 3.04855 5.90829 4.32602 5.90829C8.32631 5.90829 12.3266 5.90829 16.3262 5.90829C16.4692 5.90829 16.6123 5.90829 16.7934 5.90829Z" fill="white"/>
</svg>
