<svg width="20" height="22" viewBox="0 0 20 22" fill="none" xmlns="http://www.w3.org/2000/svg">
<path d="M3.27767 13.9458C4.14458 13.531 4.97953 13.139 5.80763 12.7325C6.88691 12.2036 7.98216 12.0795 9.03175 12.7394C9.6924 13.1542 10.4117 13.3498 11.1416 13.5462C11.532 13.6512 11.9415 13.7113 12.3099 13.8681C12.6242 14.0013 12.9234 14.2114 13.1692 14.4504C13.3237 14.6003 13.4249 14.6384 13.619 14.5813C14.8429 14.219 16.0615 13.8339 17.2991 13.5264C17.7877 13.4054 18.3365 13.3765 18.8312 13.4609C19.7674 13.6215 20.1906 14.4062 19.9181 15.3158C19.7415 15.9049 19.3883 16.3646 18.8091 16.5891C16.6049 17.4454 14.3931 18.2804 12.1866 19.1298C11.1644 19.5233 10.1765 19.3391 9.18549 19.0049C8.68315 18.836 8.15722 18.7347 7.66173 18.549C7.01706 18.307 6.42567 18.358 5.84721 18.7195C5.69879 18.8124 5.53363 18.8778 5.3639 18.9623C5.41946 19.11 5.47274 19.2356 5.51536 19.365C5.66987 19.8308 5.50014 20.273 5.05336 20.4792C4.57157 20.7007 4.07989 20.9047 3.58135 21.0874C3.10185 21.2632 2.65355 21.076 2.45185 20.5995C1.64886 18.7013 0.855014 16.7985 0.0741027 14.8903C-0.125311 14.4024 0.0839972 13.9435 0.565787 13.7258C0.980599 13.5386 1.40454 13.3704 1.82697 13.1991C2.4724 12.9365 2.88569 13.104 3.17796 13.741C3.20612 13.7989 3.23352 13.8544 3.27767 13.9458ZM5.12034 18.3983C5.39054 18.2697 5.63181 18.1662 5.86243 18.0421C6.40664 17.7506 6.96987 17.7179 7.55441 17.8891C8.35511 18.1236 9.16494 18.3291 9.95423 18.5947C10.6103 18.8154 11.2497 18.8192 11.8844 18.581C14.1092 17.7445 16.3294 16.8974 18.5496 16.048C18.9248 15.9041 19.1684 15.6142 19.3092 15.242C19.5619 14.5737 19.2513 14.0599 18.542 14.0044C18.2672 13.9831 17.9742 13.9777 17.7116 14.0485C16.3705 14.4108 15.0347 14.7959 13.7028 15.1917C13.6069 15.2206 13.511 15.3942 13.4919 15.5129C13.3313 16.4955 12.4766 17.0717 11.5168 16.8266C11.2101 16.7482 10.9033 16.6721 10.5981 16.5899C9.76851 16.3661 8.93661 16.15 8.11383 15.9011C7.99129 15.8638 7.82689 15.6575 7.83983 15.5479C7.86495 15.3287 8.06208 15.2648 8.28052 15.3432C8.33989 15.3645 8.40306 15.3744 8.46471 15.3904C9.52648 15.675 10.5882 15.9605 11.65 16.2436C12.2049 16.392 12.7217 16.1028 12.864 15.5692C12.9911 15.0913 12.6844 14.6034 12.1516 14.4435C11.9088 14.3705 11.6637 14.3073 11.4201 14.2388C10.4764 13.9739 9.51201 13.7928 8.6626 13.2326C8.02783 12.814 7.28802 12.7752 6.58246 13.0796C5.5519 13.5241 4.53884 14.0105 3.4923 14.4907C4.04183 15.8098 4.57386 17.0877 5.12034 18.3983ZM0.572638 14.5334C0.711162 14.8629 0.823808 15.1301 0.935693 15.398C1.59178 16.9743 2.24711 18.5506 2.90395 20.1268C3.10261 20.6025 3.15208 20.6208 3.63996 20.4214C3.99084 20.2775 4.344 20.1383 4.69335 19.9914C4.92245 19.8947 5.03129 19.7501 4.9194 19.4837C4.1461 17.641 3.37966 15.7961 2.61321 13.9503C2.50969 13.7015 2.34986 13.6345 2.10021 13.7418C1.69377 13.9161 1.2782 14.0698 0.876325 14.254C0.75759 14.3088 0.673106 14.4375 0.572638 14.5334Z" fill="white"/>
<path d="M12.0442 8.03973C11.9445 8.09606 11.8455 8.14705 11.7512 8.20718C10.9489 8.71713 10.152 9.23469 9.34221 9.73171C9.21054 9.81238 9.02254 9.80173 8.86118 9.8337C8.83378 9.6632 8.75006 9.47977 8.78735 9.3245C9.00808 8.38985 9.24327 7.459 9.50357 6.53499C9.57207 6.29067 9.50966 6.16737 9.3308 6.02352C8.59022 5.42756 7.8527 4.82627 7.13115 4.20824C7.00785 4.10245 6.96447 3.90303 6.88379 3.747C7.02079 3.68002 7.15399 3.5651 7.29556 3.55368C8.24315 3.4768 9.19151 3.40069 10.1406 3.37101C10.4588 3.36111 10.5729 3.2302 10.6711 2.96914C11.0015 2.09385 11.3424 1.22236 11.7009 0.357727C11.7595 0.216159 11.9247 0.117974 12.0404 0C12.1553 0.117974 12.3174 0.215398 12.376 0.356966C12.7353 1.22084 13.0831 2.08928 13.4074 2.96685C13.5094 3.24238 13.6319 3.35731 13.9417 3.36949C14.9037 3.40678 15.865 3.47985 16.8248 3.56129C16.9595 3.57271 17.143 3.68231 17.1932 3.79572C17.229 3.87639 17.1079 4.07429 17.0067 4.16029C16.2722 4.78365 15.5309 5.3994 14.7774 5.99916C14.5711 6.16357 14.5064 6.3196 14.5757 6.57305C14.8223 7.47498 15.0628 8.37843 15.2828 9.28645C15.3223 9.45009 15.2561 9.63885 15.2386 9.81619C15.056 9.78194 14.8436 9.7964 14.6952 9.70659C13.8952 9.21947 13.1105 8.70571 12.3205 8.20185C12.2345 8.14705 12.1462 8.0991 12.0442 8.03973ZM9.51194 8.91654C10.2951 8.41801 10.9938 7.98721 11.6758 7.5313C11.9354 7.35777 12.1485 7.34711 12.3996 7.52978C12.6554 7.71549 12.9301 7.87457 13.1973 8.0443C13.6304 8.31906 14.0635 8.59307 14.5666 8.91122C14.339 8.01994 14.1464 7.21239 13.9226 6.41398C13.8435 6.1316 13.8793 5.94589 14.1198 5.75865C14.7188 5.29132 15.298 4.79811 15.8833 4.31328C15.9442 4.26304 15.9914 4.19683 16.085 4.0956C15.2264 4.04689 14.4311 3.98523 13.6342 3.96316C13.2787 3.95327 13.0877 3.82768 12.9644 3.48746C12.6873 2.72025 12.37 1.9675 12.0381 1.13179C11.6964 1.9949 11.3767 2.77277 11.0821 3.55977C10.9763 3.84214 10.8043 3.94718 10.5151 3.9586C9.78138 3.98904 9.04766 4.03851 8.3147 4.08342C8.22489 4.08875 8.1366 4.1131 7.9897 4.13898C8.6846 4.71363 9.32699 5.24641 9.97242 5.77539C10.1627 5.93142 10.251 6.07984 10.1696 6.35841C9.93437 7.16825 9.74561 7.99178 9.51194 8.91654Z" fill="white"/>
</svg>
