<svg width="34" height="34" viewBox="0 0 34 34" fill="none" xmlns="http://www.w3.org/2000/svg">
<path d="M0.761719 17.0511C0.761719 7.88852 8.1893 0.460938 17.3519 0.460938C26.5145 0.460938 33.9421 7.88852 33.9421 17.0511C33.9421 26.2138 26.5145 33.6413 17.3519 33.6413C8.1893 33.6413 0.761719 26.2138 0.761719 17.0511Z" fill="white"/>
<path d="M12.4656 13.029C12.4656 14.1673 11.9184 15.0898 11.2434 15.0898C10.5683 15.0898 10.0205 14.1673 10.0205 13.029C10.0205 11.8906 10.5683 10.9688 11.2434 10.9688C11.9184 10.9688 12.4656 11.8912 12.4656 13.029Z" fill="#EF5DA8"/>
<path d="M24.6863 13.029C24.6863 14.1673 24.1385 15.0898 23.4635 15.0898C22.7884 15.0898 22.2412 14.1673 22.2412 13.029C22.2412 11.8906 22.7884 10.9688 23.4635 10.9688C24.1385 10.9688 24.6863 11.8912 24.6863 13.029Z" fill="#EF5DA8"/>
<path d="M6.2041 18.6172C6.83634 24.2162 11.5848 28.5677 17.3521 28.5677C23.1195 28.5677 27.8679 24.2162 28.5001 18.6172H6.2041Z" fill="#EF5DA8"/>
</svg>
