<svg width="20" height="20" viewBox="0 0 20 20" fill="none" xmlns="http://www.w3.org/2000/svg">
<g clip-path="url(#clip0_1425_1783)">
<path d="M10.0014 3.2189e-07C4.4759 -0.00138847 -0.0104294 4.49136 -0.000709534 10.016C0.00900841 15.5295 4.48492 19.9993 9.9979 20.0007C15.5241 20.0014 20.0097 15.5093 20 9.98472C19.9903 4.47052 15.5144 0.00138911 10.0014 3.2189e-07ZM9.99721 0.911048C15.0118 0.909659 19.0872 4.98229 19.0886 9.99722C19.0899 15.0122 15.0173 19.0876 10.0028 19.089C4.98818 19.0903 0.912798 15.0177 0.910715 10.0028C0.909328 4.98785 4.98193 0.913131 9.99721 0.911048Z" fill="white"/>
<path d="M12.2274 9.41771C12.2316 9.0358 12.1053 8.79206 11.7124 8.70943C11.2744 8.61777 10.8502 8.42334 10.4101 8.38306C10.0471 8.35043 9.64796 8.41917 9.30366 8.54763C8.77679 8.74415 8.52273 9.20315 8.5977 9.7663C8.6699 10.3114 8.79623 10.8503 8.92187 11.3863C9.06834 12.0141 9.26687 12.6307 9.39112 13.2619C9.50843 13.857 9.2752 14.1021 8.65948 14.0882C8.39987 14.082 8.14164 14.025 7.87648 13.9903C7.86676 14.3375 7.99101 14.5764 8.36238 14.6535C8.90035 14.7653 9.43208 14.9708 9.97213 14.9951C11.1335 15.0458 11.7499 14.3236 11.5347 13.1897C11.4021 12.4904 11.1612 11.8127 10.9884 11.1211C10.8912 10.7315 10.7989 10.335 10.7669 9.93712C10.7274 9.44549 10.962 9.23925 11.4611 9.28161C11.711 9.30244 11.9581 9.36841 12.2274 9.41771Z" fill="white"/>
<path d="M10.2852 6.15761C10.2838 5.51599 9.69998 4.99381 8.98986 5.00006C8.2964 5.00631 7.72511 5.52363 7.71747 6.15206C7.70984 6.78118 8.31167 7.33878 9.00236 7.34087C9.70068 7.34295 10.2865 6.80271 10.2852 6.15761Z" fill="white"/>
</g>
<defs>
<clipPath id="clip0_1425_1783">
<rect width="20" height="20" fill="white" transform="matrix(-1 0 0 1 20 0)"/>
</clipPath>
</defs>
</svg>
