<svg width="20" height="23" viewBox="0 0 20 23" fill="none" xmlns="http://www.w3.org/2000/svg">
<path d="M9.99992 13.1666C11.7948 13.1666 13.2499 11.7116 13.2499 9.91665C13.2499 8.12172 11.7948 6.66665 9.99992 6.66665C8.20499 6.66665 6.74992 8.12172 6.74992 9.91665C6.74992 11.7116 8.20499 13.1666 9.99992 13.1666Z" stroke="#ECEFF2" stroke-width="1.5" stroke-linecap="round" stroke-linejoin="round"/>
<path d="M16.1283 16.045L11.5318 20.6416C11.1255 21.0474 10.5747 21.2754 10.0005 21.2754C9.42621 21.2754 8.87544 21.0474 8.46917 20.6416L3.87151 16.045C2.6595 14.8329 1.83412 13.2887 1.49975 11.6075C1.16538 9.92637 1.33704 8.18382 1.99301 6.60022C2.64898 5.01662 3.75981 3.6631 5.18503 2.71081C6.61024 1.75852 8.28584 1.25024 9.99992 1.25024C11.714 1.25024 13.3896 1.75852 14.8148 2.71081C16.24 3.6631 17.3509 5.01662 18.0068 6.60022C18.6628 8.18382 18.8345 9.92637 18.5001 11.6075C18.1657 13.2887 17.3403 14.8329 16.1283 16.045Z" stroke="#ECEFF2" stroke-width="1.5" stroke-linecap="round" stroke-linejoin="round"/>
</svg>
