<svg width="35" height="32" viewBox="0 0 35 32" fill="none" xmlns="http://www.w3.org/2000/svg">
<path d="M30.4774 17.1185C29.5368 16.6434 28.4916 16.3964 27.4655 16.3964C25.2326 16.3964 23.3513 17.5555 22.5532 19.4178C21.9166 20.9001 22.0021 23.1519 22.7527 24.5296C23.2373 25.4228 24.33 26.3729 25.9642 26.3729C26.2873 26.3729 26.6198 26.3349 26.9524 26.2684C27.855 26.0784 29.1282 24.7292 29.4323 23.6555C29.6603 22.8479 28.7862 21.4701 27.8835 20.824C27.817 20.7765 27.741 20.7765 27.684 20.7765C27.57 20.7765 26.9999 20.7955 26.7244 21.1471C26.6293 21.2611 26.5248 21.4701 26.5913 21.7742L26.6103 21.8502L26.6673 21.8977C27.2469 22.4583 27.551 23.1329 27.4275 23.5795C27.3419 23.8835 27.0759 24.0926 26.6293 24.2066C26.2018 24.1306 25.5937 23.7695 25.3846 23.513C24.9951 23.0284 24.6435 21.8407 24.8051 21.1946C25.0901 20.0544 26.2493 19.2563 27.6365 19.2563C28.5961 19.2563 29.4513 19.6649 29.9834 20.3775C30.8575 21.5557 31.4846 23.798 30.9715 24.9097C30.3349 26.3064 28.5581 27.7601 26.8384 28.2922C26.4013 28.4252 25.9547 28.4917 25.5272 28.4917C23.8549 28.4917 22.2207 27.4561 20.938 25.5843C19.3892 23.3324 19.3037 20.9666 20.6814 18.7242C21.261 17.7931 22.0591 16.957 22.8383 16.1493C23.2088 15.7693 23.5889 15.3797 23.9404 14.9806C26.3443 12.2537 26.9239 9.10874 25.6792 5.6217C24.615 2.62874 22.2682 0.794957 18.8951 0.300881C18.5816 0.253373 18.268 0.234375 17.9545 0.234375C14.9805 0.234375 12.1396 2.15367 11.0469 4.89009C9.93526 7.67402 10.7999 10.7145 13.1943 12.4628C14.1064 13.1279 15.2846 13.4889 16.5008 13.4889C18.0875 13.4889 19.5412 12.8618 20.4154 11.8072C22.1066 9.75484 22.0971 7.42699 20.3774 5.88775C19.7978 5.36517 18.7906 5.17514 18.04 5.17514C17.66 5.17514 17.3274 5.22264 17.0709 5.29866C16.4818 5.48869 15.1991 6.68587 15.1896 7.45549C15.1896 7.75004 15.3511 7.97807 15.6551 8.08258L15.7027 8.10159H15.7502C15.8737 8.10159 15.9497 8.02558 16.0922 7.89256C16.3868 7.60751 17.0044 7.02792 17.85 7.02792C18.1635 7.02792 18.4961 7.11343 18.8191 7.27496C19.0947 7.41748 19.1517 7.75954 19.1612 7.95907C19.1897 8.64317 18.7526 9.63132 17.983 10.0969C17.5554 10.3534 16.8998 10.515 16.2727 10.515C15.9117 10.515 15.5791 10.4675 15.3226 10.3629C14.4105 10.0209 13.7834 9.28927 13.5363 8.29162C13.2323 7.04693 13.6123 5.65021 14.515 4.64305C15.4176 3.6454 16.6718 3.09431 18.0495 3.09431C19.7313 3.09431 21.3465 3.93044 22.3632 5.33666C23.6839 7.15144 23.8834 9.4888 22.8953 11.5791C21.8976 13.7075 19.9118 15.0567 17.5934 15.1992C17.4319 15.2087 17.2609 15.2087 17.0899 15.2087C15.8547 15.2087 14.572 14.9521 13.3368 14.7051C12.5197 14.5436 11.674 14.3726 10.8474 14.2775C10.5053 14.2395 10.1538 14.2205 9.81174 14.2205C5.42206 14.2205 1.64048 17.432 1.00388 21.6792C0.386286 25.8218 3.16071 29.7079 7.32236 30.5345C7.74992 30.6201 8.19649 30.6676 8.62406 30.6676C11.4365 30.6676 13.8784 28.9193 14.838 26.2114C15.8357 23.4084 14.6765 20.4915 12.1966 19.5699C11.6455 19.3703 10.9899 19.2658 10.2868 19.2658C9.33667 19.2658 8.39602 19.4558 7.62641 19.7884C6.65726 20.216 5.80212 21.8597 5.91614 23.0949C6.05866 24.7482 6.85679 25.1567 7.6169 25.5463L7.70242 25.5938C7.96846 25.7268 8.46253 25.8883 8.98511 25.8883C9.79274 25.8883 10.3248 25.5178 10.4768 24.8432L10.4863 24.8147C10.6004 23.7315 9.69773 23.2754 9.09913 22.9619C8.9091 22.8669 8.58605 22.7053 8.56705 22.6198C8.56705 22.4963 8.82359 22.4108 9.18464 22.4108C10.0303 22.4108 11.1705 22.8384 11.4745 23.4465C11.8546 24.2256 11.9496 25.5273 11.37 26.4014C10.7144 27.3801 9.84025 27.8741 8.74758 27.8741C7.93045 27.8741 7.00881 27.5796 6.08717 27.038C3.92083 25.7458 3.17022 22.7814 4.40541 20.425C5.6406 18.0686 7.72142 16.8999 10.3818 17.0615C13.2893 17.2325 15.4366 18.8382 16.6053 21.7077C16.8713 22.3728 17.0709 23.0854 17.2609 23.7695C17.5079 24.6816 17.774 25.6223 18.2015 26.4774C19.7693 29.5844 22.5342 31.2947 25.9927 31.2947C26.1163 31.2947 26.2493 31.2947 26.3728 31.2852C29.9644 31.1616 32.5583 29.3374 33.86 26.0119C35.1712 22.6483 33.6889 18.7432 30.4774 17.1185Z" fill="white"/>
</svg>
