<svg width="18" height="17" viewBox="0 0 18 17" fill="none" xmlns="http://www.w3.org/2000/svg">
<path d="M7.60417 2.19125C7.95917 0.727917 10.0408 0.727917 10.3958 2.19125C10.4491 2.41108 10.5535 2.61523 10.7006 2.78708C10.8477 2.95893 11.0332 3.09363 11.2422 3.1802C11.4512 3.26678 11.6776 3.30279 11.9032 3.28531C12.1287 3.26782 12.3469 3.19734 12.54 3.07958C13.8258 2.29625 15.2983 3.76792 14.515 5.05458C14.3974 5.24763 14.327 5.4657 14.3096 5.69106C14.2922 5.91642 14.3281 6.14272 14.4146 6.35157C14.5011 6.56041 14.6356 6.7459 14.8073 6.89296C14.9789 7.04002 15.1829 7.1445 15.4025 7.19792C16.8658 7.55292 16.8658 9.63458 15.4025 9.98958C15.1827 10.0428 14.9785 10.1473 14.8067 10.2943C14.6348 10.4414 14.5001 10.627 14.4135 10.836C14.327 11.0449 14.291 11.2714 14.3084 11.4969C14.3259 11.7224 14.3964 11.9406 14.5142 12.1337C15.2975 13.4196 13.8258 14.8921 12.5392 14.1087C12.3461 13.9912 12.1281 13.9208 11.9027 13.9033C11.6773 13.8859 11.451 13.9219 11.2422 14.0084C11.0333 14.0948 10.8479 14.2294 10.7008 14.401C10.5537 14.5727 10.4492 14.7766 10.3958 14.9963C10.0408 16.4596 7.95917 16.4596 7.60417 14.9963C7.5509 14.7764 7.44648 14.5723 7.29941 14.4004C7.15233 14.2286 6.96676 14.0939 6.75779 14.0073C6.54882 13.9207 6.32236 13.8847 6.09685 13.9022C5.87133 13.9197 5.65313 13.9902 5.46 14.1079C4.17417 14.8913 2.70167 13.4196 3.485 12.1329C3.60258 11.9399 3.67296 11.7218 3.6904 11.4964C3.70785 11.2711 3.67187 11.0448 3.58539 10.8359C3.49892 10.6271 3.36438 10.4416 3.19273 10.2945C3.02107 10.1475 2.81714 10.043 2.5975 9.98958C1.13417 9.63458 1.13417 7.55292 2.5975 7.19792C2.81733 7.14465 3.02148 7.04023 3.19333 6.89316C3.36518 6.74608 3.49988 6.56051 3.58645 6.35154C3.67303 6.14257 3.70904 5.91611 3.69156 5.6906C3.67407 5.46508 3.60359 5.24688 3.48583 5.05375C2.7025 3.76792 4.17417 2.29542 5.46083 3.07875C6.29417 3.58542 7.37417 3.13708 7.60417 2.19125Z" stroke="#ECEFF2" stroke-width="1.5" stroke-linecap="round" stroke-linejoin="round"/>
<path d="M9 11.0937C10.3807 11.0937 11.5 9.97446 11.5 8.59375C11.5 7.21304 10.3807 6.09375 9 6.09375C7.61929 6.09375 6.5 7.21304 6.5 8.59375C6.5 9.97446 7.61929 11.0937 9 11.0937Z" stroke="#ECEFF2" stroke-width="1.5" stroke-linecap="round" stroke-linejoin="round"/>
</svg>
