<svg width="18" height="14" viewBox="0 0 18 14" fill="none" xmlns="http://www.w3.org/2000/svg">
<path d="M9.83334 3.875V1.33333C9.83334 1.11232 9.92113 0.900358 10.0774 0.744078C10.2337 0.587797 10.4457 0.5 10.6667 0.5C10.8853 0.500921 11.0948 0.587713 11.25 0.741667L17.0833 6.575C17.1614 6.65247 17.2234 6.74464 17.2657 6.84619C17.3081 6.94774 17.3298 7.05666 17.3298 7.16667C17.3298 7.27668 17.3081 7.3856 17.2657 7.48715C17.2234 7.5887 17.1614 7.68086 17.0833 7.75833L11.25 13.5917C11.133 13.7063 10.9848 13.784 10.824 13.8149C10.6631 13.8458 10.4967 13.8286 10.3455 13.7655C10.1943 13.7024 10.0651 13.5961 9.97405 13.4599C9.88296 13.3238 9.83401 13.1638 9.83334 13V10.4167H9.125C7.8084 10.397 6.5033 10.6641 5.30028 11.1995C4.09726 11.7348 3.02514 12.5255 2.15834 13.5167C2.05388 13.6557 1.90852 13.7586 1.74264 13.8109C1.57676 13.8632 1.39867 13.8623 1.23334 13.8083C1.06508 13.7516 0.919363 13.6425 0.817429 13.4971C0.715494 13.3517 0.662674 13.1775 0.66667 13C0.66667 5.4 7.4 4.1 9.83334 3.875ZM9.125 8.73333C9.68237 8.73159 10.2392 8.76778 10.7917 8.84167C10.989 8.8716 11.1689 8.97132 11.2989 9.12272C11.4289 9.27411 11.5003 9.46713 11.5 9.66667V10.9917L15.3167 7.16667L11.5 3.34167V4.66667C11.5 4.88768 11.4122 5.09964 11.2559 5.25592C11.0996 5.4122 10.8877 5.5 10.6667 5.5C9.90834 5.5 3.90834 5.66667 2.60834 10.8583C4.49526 9.46713 6.78069 8.72188 9.125 8.73333Z" fill="#D6CCC6"/>
</svg>
