<svg width="81" height="80" viewBox="0 0 81 80" fill="none" xmlns="http://www.w3.org/2000/svg">
<rect x="9.25" y="8.75" width="62.5" height="62.5" rx="31.25" stroke="#672D92" stroke-opacity="0.4" stroke-width="1.5"/>
<path d="M31.5 53.5V50.5C31.5 48.9087 32.1321 47.3826 33.2574 46.2574C34.3826 45.1321 35.9087 44.5 37.5 44.5H43.5C45.0913 44.5 46.6174 45.1321 47.7426 46.2574C48.8679 47.3826 49.5 48.9087 49.5 50.5V53.5M46.5 32.5C46.5 35.8137 43.8137 38.5 40.5 38.5C37.1863 38.5 34.5 35.8137 34.5 32.5C34.5 29.1863 37.1863 26.5 40.5 26.5C43.8137 26.5 46.5 29.1863 46.5 32.5Z" stroke="#672D92" stroke-width="2" stroke-linecap="round" stroke-linejoin="round"/>
</svg>
