<svg width="20" height="21" viewBox="0 0 20 21" fill="none" xmlns="http://www.w3.org/2000/svg">
<path d="M0.000174131 10.1335C-0.00983056 3.58726 5.44085 0.145022 10.0805 0.156278C16.1471 0.171285 20.0464 5.10047 19.9995 10.1822C19.9602 14.4724 17.0213 20.1963 10.0261 20.165C5.21762 20.1438 -0.0348423 16.5396 0.000174131 10.1335ZM2.74709 16.0587C3.49119 15.5129 4.2109 14.9901 4.91935 14.4524C4.98001 14.4061 4.99001 14.2529 4.97751 14.1553C4.83619 13.0448 4.6855 11.9349 4.53793 10.825C4.52354 10.7162 4.51604 10.6068 4.50479 10.4986C3.21606 10.4986 1.96172 10.4986 0.664861 10.4986C0.746149 12.6221 1.46461 14.4724 2.74709 16.0587ZM2.74396 4.26195C1.46774 5.86083 0.737395 7.70607 0.667987 9.83894C1.91857 9.83894 3.11351 9.83894 4.30844 9.83832C4.3691 9.83832 4.43038 9.82644 4.4904 9.82018C4.50353 9.78141 4.52104 9.75265 4.52167 9.72389C4.56794 8.49581 4.70488 7.28024 4.99439 6.08343C5.01065 6.01652 4.96062 5.89834 4.9031 5.8552C4.19964 5.32683 3.48931 4.80908 2.74396 4.26195ZM17.2583 16.05C18.6808 14.4442 19.4287 11.8524 19.3048 10.5043C18.0424 10.5043 16.7793 10.5043 15.5969 10.5043C15.3999 11.7698 15.2067 13.0004 15.0228 14.2316C15.0122 14.3048 15.0535 14.4205 15.1104 14.463C15.8145 14.9926 16.526 15.5116 17.2583 16.05ZM19.3486 9.82206C19.2673 7.69669 18.5464 5.84645 17.2676 4.2632C16.526 4.80846 15.8132 5.3262 15.1123 5.85895C15.0491 5.9071 15.0253 6.05529 15.0391 6.14909C15.1498 6.88881 15.288 7.62415 15.3899 8.3645C15.4562 8.84473 15.4762 9.3312 15.5174 9.82206C16.7943 9.82206 18.0505 9.82206 19.3486 9.82206ZM9.67096 0.831594C9.56216 0.852229 9.47211 0.864109 9.38457 0.885995C8.60421 1.08359 8.00768 1.55818 7.50244 2.15847C6.71832 3.09015 6.23435 4.17691 5.86417 5.32558C5.79226 5.54881 5.82665 5.65511 6.038 5.72326C6.78836 5.96525 7.52995 6.23913 8.29031 6.4411C8.73114 6.55803 9.20261 6.56115 9.67096 6.61618C9.67096 4.65088 9.67096 2.7575 9.67096 0.831594ZM10.3425 6.59805C11.6756 6.54365 12.9162 6.23975 14.0855 5.65636C14.1431 5.62759 14.1837 5.46189 14.1574 5.38623C13.9742 4.86724 13.801 4.34136 13.5678 3.84426C13.0751 2.79564 12.4554 1.83269 11.4255 1.22615C11.1048 1.03732 10.7352 0.93039 10.3425 0.766564C10.3425 2.75937 10.3425 4.65276 10.3425 6.59805ZM9.67221 13.7233C8.34096 13.7752 7.10913 14.0791 5.94671 14.6543C5.88293 14.6856 5.8254 14.8425 5.84729 14.9157C6.1268 15.8461 6.50135 16.7353 7.04097 17.5482C7.45992 18.1791 7.9489 18.7494 8.62234 19.117C8.93874 19.2902 9.29265 19.3934 9.67158 19.5447C9.67221 17.5513 9.67221 15.6585 9.67221 13.7233ZM10.3444 19.461C10.3969 19.4678 10.4282 19.4778 10.4582 19.4747C10.5095 19.4685 10.5595 19.4547 10.6095 19.4422C11.4011 19.2433 12.0058 18.7631 12.5179 18.1541C13.2883 17.2387 13.7579 16.1675 14.1387 15.0458C14.2337 14.7656 14.1637 14.6524 13.9104 14.5662C13.3702 14.3817 12.8449 14.1397 12.2934 14.004C11.6644 13.8489 11.0135 13.7839 10.3438 13.6751C10.3444 15.6523 10.3444 17.5451 10.3444 19.461ZM5.61343 6.2385C5.34393 7.45345 5.17823 8.624 5.18073 9.82081C6.70644 9.82081 8.17901 9.82081 9.66408 9.82081C9.66408 8.95665 9.66408 8.11063 9.66408 7.2421C8.24717 7.19395 6.92029 6.85192 5.61343 6.2385ZM14.8378 9.82518C14.8165 8.59899 14.6852 7.42406 14.3894 6.24226C13.0851 6.85942 11.7563 7.19458 10.35 7.24398C10.35 8.12001 10.35 8.96603 10.35 9.82518C11.8451 9.82518 13.3183 9.82518 14.8378 9.82518ZM9.67659 10.5018C8.16775 10.5018 6.68643 10.5018 5.1776 10.5018C5.19261 11.7167 5.33267 12.891 5.62156 14.0791C6.92905 13.4569 8.26905 13.1267 9.67659 13.0717C9.67659 12.2 9.67659 11.3684 9.67659 10.5018ZM14.9034 10.5099C13.3039 10.5099 11.8232 10.5099 10.3494 10.5099C10.3494 11.3765 10.3494 12.2151 10.3494 13.0786C11.7726 13.118 13.1044 13.47 14.4632 14.1066C14.6145 12.8685 14.7571 11.7011 14.9034 10.5099ZM16.8024 3.75484C15.7426 2.55615 13.332 1.14612 12.4516 1.19176C13.6328 2.32292 14.3 3.73858 14.8215 5.33621C15.5062 4.7897 16.1446 4.28009 16.8024 3.75484ZM5.19198 14.9889C4.51542 15.5279 3.86574 16.0456 3.21168 16.5671C4.28718 17.772 6.69394 19.1796 7.53746 19.1289C6.20183 17.5476 5.84104 16.916 5.19198 14.9889ZM5.19699 5.33996C5.71535 3.71607 6.3963 2.31354 7.54308 1.16675C5.87105 1.60821 4.45039 2.4536 3.1998 3.74984C3.86761 4.28196 4.51166 4.7947 5.19699 5.33996ZM16.8181 16.5702C16.1409 16.0325 15.4962 15.5204 14.8177 14.9814C14.3038 16.5915 13.6228 18.0003 12.4748 19.1514C14.1443 18.7118 15.5581 17.8665 16.8181 16.5702Z" fill="white"/>
</svg>
